%FSTAX23Y23*%
%MOIN*%
%SFA1B1*%

%IPPOS*%
%AMD18*
4,1,8,0.014800,0.029500,-0.014800,0.029500,-0.029500,0.014800,-0.029500,-0.014800,-0.014800,-0.029500,0.014800,-0.029500,0.029500,-0.014800,0.029500,0.014800,0.014800,0.029500,0.0*
1,1,0.029528,0.014800,0.014800*
1,1,0.029528,-0.014800,0.014800*
1,1,0.029528,-0.014800,-0.014800*
1,1,0.029528,0.014800,-0.014800*
%
%ADD10R,0.047488X0.037646*%
%ADD11R,0.025591X0.062205*%
%ADD12R,0.075591X0.062205*%
%ADD13C,0.027559*%
%ADD14C,0.019685*%
%ADD15C,0.039370*%
%ADD16C,0.196850*%
%ADD17C,0.059055*%
G04~CAMADD=18~8~0.0~0.0~590.5~590.5~147.6~0.0~15~0.0~0.0~0.0~0.0~0~0.0~0.0~0.0~0.0~0~0.0~0.0~0.0~0.0~590.5~590.5*
%ADD18D18*%
%ADD19C,0.039370*%
%LNstromsensor_copper_signal_top-1*%
%LPD*%
G36*
X00649Y-00807D02*
X-00157D01*
Y-00344*
X00163*
X00163Y-00349*
X00162Y-00349*
X00155Y-00354*
X0015Y-00361*
X0015Y-00362*
X00145Y-00363*
X00138Y-00368*
X00122Y-00384*
X00117Y-00391*
X00115Y-004*
Y-00446*
X00117Y-00454*
X00122Y-00462*
X00159Y-00499*
X00167Y-00504*
X00175Y-00506*
X00249*
X00251Y-00511*
X00168Y-00594*
X00163Y-00601*
X00161Y-0061*
X00163Y-00618*
X00168Y-00625*
X00175Y-0063*
X00183Y-00632*
X00192Y-0063*
X00199Y-00625*
X00279Y-00545*
X0045*
X00459Y-00543*
X00466Y-00539*
X00526Y-00478*
X00531Y-00471*
X00533Y-00463*
Y-0044*
X00531Y-00431*
X00526Y-00424*
X0051Y-00408*
X00503Y-00403*
X00495Y-00402*
X00433*
X00424Y-00403*
X00417Y-00408*
X00412Y-00415*
X0041Y-00424*
Y-00424*
Y-00458*
X00407Y-00462*
X00351*
X00348Y-00457*
X0035Y-00453*
X00352Y-00446*
Y-00444*
X00426Y-0037*
X00464*
Y-00344*
X00649*
Y-00807*
G37*
G36*
X00137Y-00137D02*
X-00157D01*
Y00137*
X00137*
Y-00137*
G37*
G36*
X00649D02*
X00354D01*
Y00137*
X00649*
Y-00137*
G37*
%LNstromsensor_copper_signal_top-2*%
%LPC*%
G36*
X00388Y-00572D02*
X00378D01*
X00369Y-00575*
X0036Y-0058*
X00353Y-00587*
X00349Y-00595*
X00346Y-00605*
Y-00615*
X00349Y-00624*
X00353Y-00633*
X0036Y-0064*
X00369Y-00645*
X00378Y-00647*
X00388*
X00398Y-00645*
X00406Y-0064*
X00413Y-00633*
X00418Y-00624*
X00421Y-00615*
Y-00605*
X00418Y-00595*
X00413Y-00587*
X00406Y-0058*
X00398Y-00575*
X00388Y-00572*
G37*
G36*
X00288D02*
X00278D01*
X00269Y-00575*
X0026Y-0058*
X00253Y-00587*
X00249Y-00595*
X00246Y-00605*
Y-00615*
X00249Y-00624*
X00253Y-00633*
X0026Y-0064*
X00269Y-00645*
X00278Y-00647*
X00288*
X00298Y-00645*
X00306Y-0064*
X00313Y-00633*
X00318Y-00624*
X00321Y-00615*
Y-00605*
X00318Y-00595*
X00313Y-00587*
X00306Y-0058*
X00298Y-00575*
X00288Y-00572*
G37*
G36*
X00498Y-00572D02*
X00469D01*
X0046Y-00574*
X00452Y-00579*
X00447Y-00586*
X00446Y-00595*
Y-00625*
X00447Y-00633*
X00452Y-00641*
X0046Y-00646*
X00469Y-00648*
X00498*
X00507Y-00646*
X00514Y-00641*
X00519Y-00633*
X00521Y-00625*
Y-00595*
X00519Y-00586*
X00514Y-00579*
X00507Y-00574*
X00498Y-00572*
G37*
%LNstromsensor_copper_signal_top-3*%
%LPD*%
G54D10*
X00433Y-00424D03*
Y-00343D03*
G54D11*
X0032Y-0037D03*
X00269D03*
X00218D03*
X00171D03*
G54D12*
X00196Y-00137D03*
X00295D03*
G54D13*
X00433Y-00424D02*
X00495D01*
X0045Y-00523D02*
X00511Y-00463D01*
X00495Y-00424D02*
X00511Y-0044D01*
Y-00463D02*
Y-0044D01*
X0027Y-00523D02*
X0045D01*
X00183Y-0061D02*
X0027Y-00523D01*
X00416Y-00484D02*
X00433Y-00468D01*
X00175Y-00484D02*
X00416D01*
X00433Y-00424D02*
D01*
Y-00468D02*
Y-00424D01*
X00137Y-00446D02*
X00175Y-00484D01*
X00265Y-00437D02*
X00269Y-00433D01*
X00137Y-00446D02*
Y-004D01*
X00269Y-00433D02*
Y-0037D01*
X00265Y-0044D02*
Y-00437D01*
X00153Y-00383D02*
X0017D01*
X00137Y-004D02*
X00153Y-00383D01*
X00216Y-00442D02*
X00217Y-00441D01*
Y-00371D02*
X00218Y-0037D01*
X00217Y-00441D02*
Y-00371D01*
X00171Y-00382D02*
Y-0037D01*
X0017Y-00383D02*
X00171Y-00382D01*
G54D14*
X00328Y-00442D02*
X00428Y-00343D01*
X00324Y-00442D02*
X00328D01*
X00384Y-00343D02*
X00428D01*
X00433*
X00358Y-0037D02*
X00384Y-00343D01*
X0032Y-0037D02*
X00358D01*
G54D15*
X00295Y-00137D02*
X00354D01*
X00492Y0*
X00137Y-00137D02*
X00196D01*
X0Y0D02*
X00137Y-00137D01*
G54D16*
X00492Y0D03*
X0D03*
G54D17*
X00383Y-0061D03*
X00283D03*
X00183D03*
G54D18*
X00483Y-0061D03*
G54D19*
X0062Y-00108D03*
Y00108D03*
X00383D03*
X-00127Y-00108D03*
X00108Y00108D03*
X-00127D03*
Y-00767D03*
X0062D03*
Y-00374D03*
X-00127D03*
X00265Y-0044D03*
X00216Y-00442D03*
X00324D03*
M02*